<?xml version="1.0" encoding="UTF-8" standalone="no"?>
<!DOCTYPE svg PUBLIC "-//W3C//DTD SVG 1.1//EN"
 "http://www.w3.org/Graphics/SVG/1.1/DTD/svg11.dtd">
<!-- Generated by graphviz version 14.1.3 (20260303.0454)
 -->
<!-- Title: 앱_컴포넌트_구조도 Pages: 1 -->
<svg width="1444pt" height="918pt"
 viewBox="0.00 0.00 1444.00 918.00" xmlns="http://www.w3.org/2000/svg" xmlns:xlink="http://www.w3.org/1999/xlink">
<g id="graph0" class="graph" transform="scale(1 1) rotate(0) translate(32.4 885.15)">
<title>앱_컴포넌트_구조도</title>
<polygon fill="#f7f8fc" stroke="none" points="-32.4,32.4 -32.4,-885.15 1411.24,-885.15 1411.24,32.4 -32.4,32.4"/>
<text xml:space="preserve" text-anchor="middle" x="689.42" y="-825.95" font-family="Apple SD Gothic Neo" font-size="24.00" fill="#0f172a">앱 컴포넌트 구조도</text>
<g id="clust1" class="cluster">
<title>cluster_부트스트랩</title>
<path fill="#eff6ff" stroke="#93c5fd" stroke-width="1.4" d="M686,-362C686,-362 810,-362 810,-362 816,-362 822,-368 822,-374 822,-374 822,-795.5 822,-795.5 822,-801.5 816,-807.5 810,-807.5 810,-807.5 686,-807.5 686,-807.5 680,-807.5 674,-801.5 674,-795.5 674,-795.5 674,-374 674,-374 674,-368 680,-362 686,-362"/>
<text xml:space="preserve" text-anchor="middle" x="748" y="-780.7" font-family="Apple SD Gothic Neo" font-size="24.00" fill="#0f172a">부트스트랩</text>
</g>
<g id="clust2" class="cluster">
<title>cluster_데이터계층</title>
<path fill="#fffbeb" stroke="#fbbf24" stroke-width="1.4" d="M20,-185C20,-185 257,-185 257,-185 263,-185 269,-191 269,-197 269,-197 269,-305 269,-305 269,-311 263,-317 257,-317 257,-317 20,-317 20,-317 14,-317 8,-311 8,-305 8,-305 8,-197 8,-197 8,-191 14,-185 20,-185"/>
<text xml:space="preserve" text-anchor="middle" x="138.5" y="-290.2" font-family="Apple SD Gothic Neo" font-size="24.00" fill="#0f172a">데이터 계층</text>
</g>
<g id="clust3" class="cluster">
<title>cluster_앱셸</title>
<path fill="#f5f3ff" stroke="#c4b5fd" stroke-width="1.4" d="M289,-15.12C289,-15.12 501,-15.12 501,-15.12 507,-15.12 513,-21.12 513,-27.12 513,-27.12 513,-305 513,-305 513,-311 507,-317 501,-317 501,-317 289,-317 289,-317 283,-317 277,-311 277,-305 277,-305 277,-27.13 277,-27.13 277,-21.12 283,-15.12 289,-15.12"/>
<text xml:space="preserve" text-anchor="middle" x="395" y="-290.2" font-family="Apple SD Gothic Neo" font-size="24.00" fill="#0f172a">앱 셸</text>
</g>
<g id="clust4" class="cluster">
<title>cluster_페이지</title>
<path fill="#fff1f2" stroke="#fda4af" stroke-width="1.4" d="M713,-185C713,-185 1192,-185 1192,-185 1198,-185 1204,-191 1204,-197 1204,-197 1204,-305 1204,-305 1204,-311 1198,-317 1192,-317 1192,-317 713,-317 713,-317 707,-317 701,-311 701,-305 701,-305 701,-197 701,-197 701,-191 707,-185 713,-185"/>
<text xml:space="preserve" text-anchor="middle" x="952.5" y="-290.2" font-family="Apple SD Gothic Neo" font-size="24.00" fill="#0f172a">페이지 컴포넌트</text>
</g>
<g id="clust5" class="cluster">
<title>cluster_공용UI</title>
<path fill="#f0fdf4" stroke="#86efac" stroke-width="1.4" d="M589,-8C589,-8 1247,-8 1247,-8 1253,-8 1259,-14 1259,-20 1259,-20 1259,-128 1259,-128 1259,-134 1253,-140 1247,-140 1247,-140 589,-140 589,-140 583,-140 577,-134 577,-128 577,-128 577,-20 577,-20 577,-14 583,-8 589,-8"/>
<text xml:space="preserve" text-anchor="middle" x="918" y="-113.2" font-family="Apple SD Gothic Neo" font-size="24.00" fill="#0f172a">공용 UI 조각</text>
</g>
<!-- 메인_시작점 -->
<g id="node1" class="node">
<title>메인_시작점</title>
<polygon fill="#dbeafe" stroke="none" points="695.5,-730 695.5,-762.25 800.5,-762.25 800.5,-730 695.5,-730"/>
<polygon fill="none" stroke="#93c5fd" points="695.5,-730 695.5,-762.25 800.5,-762.25 800.5,-730 695.5,-730"/>
<text xml:space="preserve" text-anchor="start" x="722.12" y="-743.8" font-family="Apple SD Gothic Neo" font-weight="bold" font-size="11.00">메인 시작점</text>
<polygon fill="#f8fbff" stroke="none" points="695.5,-683.5 695.5,-730 800.5,-730 800.5,-683.5 695.5,-683.5"/>
<polygon fill="none" stroke="#93c5fd" points="695.5,-683.5 695.5,-730 800.5,-730 800.5,-683.5 695.5,-683.5"/>
<text xml:space="preserve" text-anchor="start" x="712.38" y="-710.5" font-family="Apple SD Gothic Neo" font-size="11.00">브라우저 시작점</text>
<text xml:space="preserve" text-anchor="start" x="704.5" y="-696.25" font-family="Apple SD Gothic Neo" font-size="11.00">루트 문서 노드 획득</text>
</g>
<!-- 앱_생성기 -->
<g id="node2" class="node">
<title>앱_생성기</title>
<polygon fill="#dbeafe" stroke="none" points="701.88,-573.25 701.88,-605.5 794.12,-605.5 794.12,-573.25 701.88,-573.25"/>
<polygon fill="none" stroke="#93c5fd" points="701.88,-573.25 701.88,-605.5 794.12,-605.5 794.12,-573.25 701.88,-573.25"/>
<text xml:space="preserve" text-anchor="start" x="727" y="-587.05" font-family="Apple SD Gothic Neo" font-weight="bold" font-size="11.00">앱 생성기</text>
<polygon fill="#f8fbff" stroke="none" points="701.88,-526.75 701.88,-573.25 794.12,-573.25 794.12,-526.75 701.88,-526.75"/>
<polygon fill="none" stroke="#93c5fd" points="701.88,-526.75 701.88,-573.25 794.12,-573.25 794.12,-526.75 701.88,-526.75"/>
<text xml:space="preserve" text-anchor="start" x="710.88" y="-553.75" font-family="Apple SD Gothic Neo" font-size="11.00">루트 런타임 생성</text>
<text xml:space="preserve" text-anchor="start" x="712.38" y="-539.5" font-family="Apple SD Gothic Neo" font-size="11.00">장착 / 점검 제공</text>
</g>
<!-- 메인_시작점&#45;&gt;앱_생성기 -->
<g id="edge1" class="edge">
<title>메인_시작점&#45;&gt;앱_생성기</title>
<path fill="none" stroke="#64748b" stroke-width="1.2" d="M748,-683.62C748,-662.98 748,-637.29 748,-615.29"/>
<polygon fill="#64748b" stroke="#64748b" stroke-width="1.2" points="750.8,-615.29 748,-607.29 745.2,-615.29 750.8,-615.29"/>
<text xml:space="preserve" text-anchor="middle" x="763" y="-641" font-family="Apple SD Gothic Neo" font-size="10.00">앱 시작</text>
</g>
<!-- 루트_앱 -->
<g id="node3" class="node">
<title>루트_앱</title>
<polygon fill="#bfdbfe" stroke="none" points="682.38,-416.5 682.38,-448.75 813.62,-448.75 813.62,-416.5 682.38,-416.5"/>
<polygon fill="none" stroke="#60a5fa" points="682.38,-416.5 682.38,-448.75 813.62,-448.75 813.62,-416.5 682.38,-416.5"/>
<text xml:space="preserve" text-anchor="start" x="731.88" y="-430.3" font-family="Apple SD Gothic Neo" font-weight="bold" font-size="11.00">루트 앱</text>
<polygon fill="#f8fbff" stroke="none" points="682.38,-370 682.38,-416.5 813.62,-416.5 813.62,-370 682.38,-370"/>
<polygon fill="none" stroke="#60a5fa" points="682.38,-370 682.38,-416.5 813.62,-416.5 813.62,-370 682.38,-370"/>
<text xml:space="preserve" text-anchor="start" x="699.62" y="-397" font-family="Apple SD Gothic Neo" font-size="11.00">단일 루트 상태 저장소</text>
<text xml:space="preserve" text-anchor="start" x="691.38" y="-382.75" font-family="Apple SD Gothic Neo" font-size="11.00">페이지 분기 / 데이터 로드</text>
</g>
<!-- 앱_생성기&#45;&gt;루트_앱 -->
<g id="edge2" class="edge">
<title>앱_생성기&#45;&gt;루트_앱</title>
<path fill="none" stroke="#64748b" stroke-width="1.2" d="M748,-526.87C748,-506.23 748,-480.54 748,-458.54"/>
<polygon fill="#64748b" stroke="#64748b" stroke-width="1.2" points="750.8,-458.54 748,-450.54 745.2,-458.54 750.8,-458.54"/>
<text xml:space="preserve" text-anchor="middle" x="778" y="-484.25" font-family="Apple SD Gothic Neo" font-size="10.00">루트 상태 연결</text>
</g>
<!-- 카드_라이브러리 -->
<g id="node4" class="node">
<title>카드_라이브러리</title>
<polygon fill="#fde68a" stroke="none" points="16.38,-239.5 16.38,-271.75 105.62,-271.75 105.62,-239.5 16.38,-239.5"/>
<polygon fill="none" stroke="#f59e0b" points="16.38,-239.5 16.38,-271.75 105.62,-271.75 105.62,-239.5 16.38,-239.5"/>
<text xml:space="preserve" text-anchor="start" x="25.38" y="-253.3" font-family="Apple SD Gothic Neo" font-weight="bold" font-size="11.00">카드 라이브러리</text>
<polygon fill="#fffdf5" stroke="none" points="16.38,-193 16.38,-239.5 105.62,-239.5 105.62,-193 16.38,-193"/>
<polygon fill="none" stroke="#f59e0b" points="16.38,-193 16.38,-239.5 105.62,-239.5 105.62,-193 16.38,-193"/>
<text xml:space="preserve" text-anchor="start" x="25.38" y="-220" font-family="Apple SD Gothic Neo" font-size="11.00">메타데이터</text>
<text xml:space="preserve" text-anchor="start" x="28.75" y="-205.75" font-family="Apple SD Gothic Neo" font-size="11.00">대체 카드</text>
</g>
<!-- 루트_앱&#45;&gt;카드_라이브러리 -->
<g id="edge3" class="edge">
<title>루트_앱&#45;&gt;카드_라이브러리</title>
<path fill="none" stroke="#64748b" stroke-width="1.2" d="M682.68,-401.72C581.13,-390.91 379.44,-367.65 210,-337 174.31,-330.55 158.92,-337.33 131.18,-321.95"/>
<polygon fill="#64748b" stroke="#64748b" stroke-width="1.2" points="132.85,-319.69 124.55,-317.94 129.95,-324.48 132.85,-319.69"/>
<text xml:space="preserve" text-anchor="middle" x="244.5" y="-327.5" font-family="Apple SD Gothic Neo" font-size="10.00">대체 데이터 사용</text>
</g>
<!-- 포케_API -->
<g id="node5" class="node">
<title>포케_API</title>
<polygon fill="#fde68a" stroke="none" points="141.38,-239.5 141.38,-271.75 260.62,-271.75 260.62,-239.5 141.38,-239.5"/>
<polygon fill="none" stroke="#f59e0b" points="141.38,-239.5 141.38,-271.75 260.62,-271.75 260.62,-239.5 141.38,-239.5"/>
<text xml:space="preserve" text-anchor="start" x="150.38" y="-253.3" font-family="Apple SD Gothic Neo" font-weight="bold" font-size="11.00">포켓몬 API 클라이언트</text>
<polygon fill="#fffdf5" stroke="none" points="141.38,-193 141.38,-239.5 260.62,-239.5 260.62,-193 141.38,-193"/>
<polygon fill="none" stroke="#f59e0b" points="141.38,-193 141.38,-239.5 260.62,-239.5 260.62,-193 141.38,-193"/>
<text xml:space="preserve" text-anchor="start" x="156.75" y="-220" font-family="Apple SD Gothic Neo" font-size="11.00">카탈로그 로드</text>
<text xml:space="preserve" text-anchor="start" x="150.38" y="-205.75" font-family="Apple SD Gothic Neo" font-size="11.00">상세 데이터 요청</text>
</g>
<!-- 루트_앱&#45;&gt;포케_API -->
<g id="edge4" class="edge">
<title>루트_앱&#45;&gt;포케_API</title>
<path fill="none" stroke="#64748b" stroke-width="1.2" d="M682.51,-401.57C572.26,-389.23 354.03,-360.77 276.34,-321.58"/>
<polygon fill="#64748b" stroke="#64748b" stroke-width="1.2" points="277.95,-319.27 269.59,-317.87 275.26,-324.18 277.95,-319.27"/>
<text xml:space="preserve" text-anchor="middle" x="347.51" y="-327.5" font-family="Apple SD Gothic Neo" font-size="10.00">원격 데이터 요청</text>
</g>
<!-- 공통_레이아웃 -->
<g id="node6" class="node">
<title>공통_레이아웃</title>
<polygon fill="#ddd6fe" stroke="none" points="410.88,-239.5 410.88,-271.75 503.12,-271.75 503.12,-239.5 410.88,-239.5"/>
<polygon fill="none" stroke="#a78bfa" points="410.88,-239.5 410.88,-271.75 503.12,-271.75 503.12,-239.5 410.88,-239.5"/>
<text xml:space="preserve" text-anchor="start" x="426.25" y="-253.3" font-family="Apple SD Gothic Neo" font-weight="bold" font-size="11.00">공통 레이아웃</text>
<polygon fill="#faf8ff" stroke="none" points="410.88,-193 410.88,-239.5 503.12,-239.5 503.12,-193 410.88,-193"/>
<polygon fill="none" stroke="#a78bfa" points="410.88,-193 410.88,-239.5 503.12,-239.5 503.12,-193 410.88,-193"/>
<text xml:space="preserve" text-anchor="start" x="426.25" y="-220" font-family="Apple SD Gothic Neo" font-size="11.00">공통 레이아웃</text>
<text xml:space="preserve" text-anchor="start" x="419.88" y="-205.75" font-family="Apple SD Gothic Neo" font-size="11.00">페이지 외곽 구조</text>
</g>
<!-- 루트_앱&#45;&gt;공통_레이아웃 -->
<g id="edge5" class="edge">
<title>루트_앱&#45;&gt;공통_레이아웃</title>
<path fill="none" stroke="#64748b" stroke-width="1.2" d="M684.5,-370.19C636.12,-341.1 569.8,-301.21 521.24,-272.01"/>
<polygon fill="#64748b" stroke="#64748b" stroke-width="1.2" points="522.85,-269.71 514.56,-267.99 519.97,-274.51 522.85,-269.71"/>
<text xml:space="preserve" text-anchor="middle" x="654.06" y="-327.5" font-family="Apple SD Gothic Neo" font-size="10.00">공통 셸 구성</text>
</g>
<!-- 대시보드_페이지 -->
<g id="node9" class="node">
<title>대시보드_페이지</title>
<polygon fill="#fecdd3" stroke="none" points="841.5,-239.5 841.5,-271.75 940.5,-271.75 940.5,-239.5 841.5,-239.5"/>
<polygon fill="none" stroke="#fb7185" points="841.5,-239.5 841.5,-271.75 940.5,-271.75 940.5,-239.5 841.5,-239.5"/>
<text xml:space="preserve" text-anchor="start" x="855.38" y="-253.3" font-family="Apple SD Gothic Neo" font-weight="bold" font-size="11.00">대시보드 페이지</text>
<polygon fill="#fff8f8" stroke="none" points="841.5,-193 841.5,-239.5 940.5,-239.5 940.5,-193 841.5,-193"/>
<polygon fill="none" stroke="#fb7185" points="841.5,-193 841.5,-239.5 940.5,-239.5 940.5,-193 841.5,-193"/>
<text xml:space="preserve" text-anchor="start" x="860.25" y="-220" font-family="Apple SD Gothic Neo" font-size="11.00">요약 대시보드</text>
<text xml:space="preserve" text-anchor="start" x="850.5" y="-205.75" font-family="Apple SD Gothic Neo" font-size="11.00">스포트라이트 카드</text>
</g>
<!-- 루트_앱&#45;&gt;대시보드_페이지 -->
<g id="edge6" class="edge">
<title>루트_앱&#45;&gt;대시보드_페이지</title>
<path fill="none" stroke="#64748b" stroke-width="1.2" d="M801.18,-370.27C813.14,-360.26 825.18,-348.91 835,-337 838.13,-333.2 841.17,-329.21 844.1,-325.08"/>
<polygon fill="#64748b" stroke="#64748b" stroke-width="1.2" points="846.39,-326.68 848.59,-318.5 841.77,-323.53 846.39,-326.68"/>
<text xml:space="preserve" text-anchor="middle" x="890.41" y="-327.5" font-family="Apple SD Gothic Neo" font-size="10.00">현재 페이지 = 대시보드</text>
</g>
<!-- 컬렉션_페이지 -->
<g id="node10" class="node">
<title>컬렉션_페이지</title>
<polygon fill="#fecdd3" stroke="none" points="709,-232.38 709,-264.62 805,-264.62 805,-232.38 709,-232.38"/>
<polygon fill="none" stroke="#fb7185" points="709,-232.38 709,-264.62 805,-264.62 805,-232.38 709,-232.38"/>
<text xml:space="preserve" text-anchor="start" x="726.25" y="-246.18" font-family="Apple SD Gothic Neo" font-weight="bold" font-size="11.00">컬렉션 페이지</text>
<polygon fill="#fff8f8" stroke="none" points="709,-200.12 709,-232.38 805,-232.38 805,-200.12 709,-200.12"/>
<polygon fill="none" stroke="#fb7185" points="709,-200.12 709,-232.38 805,-232.38 805,-200.12 709,-200.12"/>
<text xml:space="preserve" text-anchor="start" x="718" y="-212.88" font-family="Apple SD Gothic Neo" font-size="11.00">검색 / 필터 / 목록</text>
</g>
<!-- 루트_앱&#45;&gt;컬렉션_페이지 -->
<g id="edge7" class="edge">
<title>루트_앱&#45;&gt;컬렉션_페이지</title>
<path fill="none" stroke="#64748b" stroke-width="1.2" d="M745.31,-370.24C744.66,-359.5 744.07,-347.79 743.75,-337 743.65,-333.64 743.63,-330.22 743.69,-326.77"/>
<polygon fill="#64748b" stroke="#64748b" stroke-width="1.2" points="746.49,-326.9 743.97,-318.81 740.89,-326.71 746.49,-326.9"/>
<text xml:space="preserve" text-anchor="middle" x="786.88" y="-327.5" font-family="Apple SD Gothic Neo" font-size="10.00">현재 페이지 = 컬렉션</text>
</g>
<!-- 상세_페이지 -->
<g id="node11" class="node">
<title>상세_페이지</title>
<polygon fill="#fecdd3" stroke="none" points="1081.62,-239.5 1081.62,-271.75 1196.38,-271.75 1196.38,-239.5 1081.62,-239.5"/>
<polygon fill="none" stroke="#fb7185" points="1081.62,-239.5 1081.62,-271.75 1196.38,-271.75 1196.38,-239.5 1081.62,-239.5"/>
<text xml:space="preserve" text-anchor="start" x="1113.12" y="-253.3" font-family="Apple SD Gothic Neo" font-weight="bold" font-size="11.00">상세 페이지</text>
<polygon fill="#fff8f8" stroke="none" points="1081.62,-193 1081.62,-239.5 1196.38,-239.5 1196.38,-193 1081.62,-193"/>
<polygon fill="none" stroke="#fb7185" points="1081.62,-193 1081.62,-239.5 1196.38,-239.5 1196.38,-193 1081.62,-193"/>
<text xml:space="preserve" text-anchor="start" x="1106.75" y="-220" font-family="Apple SD Gothic Neo" font-size="11.00">선택 카드 상세</text>
<text xml:space="preserve" text-anchor="start" x="1090.62" y="-205.75" font-family="Apple SD Gothic Neo" font-size="11.00">상태 기반 기울기 데모</text>
</g>
<!-- 루트_앱&#45;&gt;상세_페이지 -->
<g id="edge8" class="edge">
<title>루트_앱&#45;&gt;상세_페이지</title>
<path fill="none" stroke="#64748b" stroke-width="1.2" d="M813.34,-403.42C876.31,-396.25 972.43,-378.88 1045,-337 1051.92,-333 1058.62,-328.32 1065.03,-323.2"/>
<polygon fill="#64748b" stroke="#64748b" stroke-width="1.2" points="1066.71,-325.45 1071.04,-318.16 1063.11,-321.16 1066.71,-325.45"/>
<text xml:space="preserve" text-anchor="middle" x="1099.34" y="-327.5" font-family="Apple SD Gothic Neo" font-size="10.00">현재 페이지 = 상세</text>
</g>
<!-- 설정_페이지 -->
<g id="node12" class="node">
<title>설정_페이지</title>
<polygon fill="#fecdd3" stroke="none" points="976.12,-232.38 976.12,-264.62 1045.88,-264.62 1045.88,-232.38 976.12,-232.38"/>
<polygon fill="none" stroke="#fb7185" points="976.12,-232.38 976.12,-264.62 1045.88,-264.62 1045.88,-232.38 976.12,-232.38"/>
<text xml:space="preserve" text-anchor="start" x="985.12" y="-246.18" font-family="Apple SD Gothic Neo" font-weight="bold" font-size="11.00">설정 페이지</text>
<polygon fill="#fff8f8" stroke="none" points="976.12,-200.12 976.12,-232.38 1045.88,-232.38 1045.88,-200.12 976.12,-200.12"/>
<polygon fill="none" stroke="#fb7185" points="976.12,-200.12 976.12,-232.38 1045.88,-232.38 1045.88,-200.12 976.12,-200.12"/>
<text xml:space="preserve" text-anchor="start" x="985.12" y="-212.88" font-family="Apple SD Gothic Neo" font-size="11.00">설정 패널</text>
</g>
<!-- 루트_앱&#45;&gt;설정_페이지 -->
<g id="edge9" class="edge">
<title>루트_앱&#45;&gt;설정_페이지</title>
<path fill="none" stroke="#64748b" stroke-width="1.2" d="M813.54,-396.52C855.27,-386.34 908.5,-368.19 947,-337 951.71,-333.19 956.16,-328.93 960.36,-324.38"/>
<polygon fill="#64748b" stroke="#64748b" stroke-width="1.2" points="962.44,-326.25 965.56,-318.37 958.21,-322.59 962.44,-326.25"/>
<text xml:space="preserve" text-anchor="middle" x="997.64" y="-327.5" font-family="Apple SD Gothic Neo" font-size="10.00">현재 페이지 = 설정</text>
</g>
<!-- 상단_탐색 -->
<g id="node7" class="node">
<title>상단_탐색</title>
<polygon fill="#ede9fe" stroke="none" points="285,-55.38 285,-87.62 387,-87.62 387,-55.38 285,-55.38"/>
<polygon fill="none" stroke="#a78bfa" points="285,-55.38 285,-87.62 387,-87.62 387,-55.38 285,-55.38"/>
<text xml:space="preserve" text-anchor="start" x="315" y="-69.17" font-family="Apple SD Gothic Neo" font-weight="bold" font-size="11.00">상단 탐색</text>
<polygon fill="#faf8ff" stroke="none" points="285,-23.12 285,-55.38 387,-55.38 387,-23.12 285,-23.12"/>
<polygon fill="none" stroke="#a78bfa" points="285,-23.12 285,-55.38 387,-55.38 387,-23.12 285,-23.12"/>
<text xml:space="preserve" text-anchor="start" x="294" y="-35.88" font-family="Apple SD Gothic Neo" font-size="11.00">데스크톱 상단 메뉴</text>
</g>
<!-- 공통_레이아웃&#45;&gt;상단_탐색 -->
<g id="edge10" class="edge">
<title>공통_레이아웃&#45;&gt;상단_탐색</title>
<path fill="none" stroke="#64748b" stroke-width="1.2" d="M420.77,-193.35C411.57,-182.9 402.03,-171.33 394,-160 379.67,-139.78 366.01,-115.7 355.55,-95.85"/>
<polygon fill="#64748b" stroke="#64748b" stroke-width="1.2" points="358.13,-94.75 351.96,-88.95 353.16,-97.34 358.13,-94.75"/>
<text xml:space="preserve" text-anchor="middle" x="422.5" y="-150.5" font-family="Apple SD Gothic Neo" font-size="10.00">데스크톱 탐색</text>
</g>
<!-- 하단_탭바 -->
<g id="node8" class="node">
<title>하단_탭바</title>
<polygon fill="#ede9fe" stroke="none" points="422.75,-55.38 422.75,-87.62 505.25,-87.62 505.25,-55.38 422.75,-55.38"/>
<polygon fill="none" stroke="#a78bfa" points="422.75,-55.38 422.75,-87.62 505.25,-87.62 505.25,-55.38 422.75,-55.38"/>
<text xml:space="preserve" text-anchor="start" x="441.5" y="-69.17" font-family="Apple SD Gothic Neo" font-weight="bold" font-size="11.00">하단 탭 바</text>
<polygon fill="#faf8ff" stroke="none" points="422.75,-23.12 422.75,-55.38 505.25,-55.38 505.25,-23.12 422.75,-23.12"/>
<polygon fill="none" stroke="#a78bfa" points="422.75,-23.12 422.75,-55.38 505.25,-55.38 505.25,-23.12 422.75,-23.12"/>
<text xml:space="preserve" text-anchor="start" x="431.75" y="-35.88" font-family="Apple SD Gothic Neo" font-size="11.00">모바일 하단 탭</text>
</g>
<!-- 공통_레이아웃&#45;&gt;하단_탭바 -->
<g id="edge11" class="edge">
<title>공통_레이아웃&#45;&gt;하단_탭바</title>
<path fill="none" stroke="#64748b" stroke-width="1.2" d="M458.52,-193.4C459.66,-164.95 461.21,-126.09 462.37,-97.01"/>
<polygon fill="#64748b" stroke="#64748b" stroke-width="1.2" points="465.16,-97.48 462.68,-89.37 459.56,-97.26 465.16,-97.48"/>
<text xml:space="preserve" text-anchor="middle" x="484.29" y="-150.5" font-family="Apple SD Gothic Neo" font-size="10.00">모바일 탐색</text>
</g>
<!-- 페이지_헤더 -->
<g id="node13" class="node">
<title>페이지_헤더</title>
<polygon fill="#dcfce7" stroke="none" points="998.88,-55.38 998.88,-87.62 1091.12,-87.62 1091.12,-55.38 998.88,-55.38"/>
<polygon fill="none" stroke="#4ade80" points="998.88,-55.38 998.88,-87.62 1091.12,-87.62 1091.12,-55.38 998.88,-55.38"/>
<text xml:space="preserve" text-anchor="start" x="1019.12" y="-69.17" font-family="Apple SD Gothic Neo" font-weight="bold" font-size="11.00">페이지 헤더</text>
<polygon fill="#f9fff9" stroke="none" points="998.88,-23.12 998.88,-55.38 1091.12,-55.38 1091.12,-23.12 998.88,-23.12"/>
<polygon fill="none" stroke="#4ade80" points="998.88,-23.12 998.88,-55.38 1091.12,-55.38 1091.12,-23.12 998.88,-23.12"/>
<text xml:space="preserve" text-anchor="start" x="1007.88" y="-35.88" font-family="Apple SD Gothic Neo" font-size="11.00">페이지 상단 헤더</text>
</g>
<!-- 대시보드_페이지&#45;&gt;페이지_헤더 -->
<g id="edge12" class="edge">
<title>대시보드_페이지&#45;&gt;페이지_헤더</title>
<path fill="none" stroke="#64748b" stroke-width="1.2" d="M940.17,-196C946.09,-192.14 952.12,-188.39 958,-185 980.56,-171.99 993.76,-179.52 1011,-160 1026.47,-142.48 1034.93,-117.76 1039.54,-96.86"/>
<polygon fill="#64748b" stroke="#64748b" stroke-width="1.2" points="1042.28,-97.43 1041.1,-89.04 1036.79,-96.34 1042.28,-97.43"/>
<text xml:space="preserve" text-anchor="middle" x="1028.75" y="-150.5" font-family="Apple SD Gothic Neo" font-size="10.00">헤더</text>
</g>
<!-- 요약_카드 -->
<g id="node14" class="node">
<title>요약_카드</title>
<polygon fill="#dcfce7" stroke="none" points="880.75,-55.38 880.75,-87.62 963.25,-87.62 963.25,-55.38 880.75,-55.38"/>
<polygon fill="none" stroke="#4ade80" points="880.75,-55.38 880.75,-87.62 963.25,-87.62 963.25,-55.38 880.75,-55.38"/>
<text xml:space="preserve" text-anchor="start" x="901" y="-69.17" font-family="Apple SD Gothic Neo" font-weight="bold" font-size="11.00">요약 카드</text>
<polygon fill="#f9fff9" stroke="none" points="880.75,-23.12 880.75,-55.38 963.25,-55.38 963.25,-23.12 880.75,-23.12"/>
<polygon fill="none" stroke="#4ade80" points="880.75,-23.12 880.75,-55.38 963.25,-55.38 963.25,-23.12 880.75,-23.12"/>
<text xml:space="preserve" text-anchor="start" x="889.75" y="-35.88" font-family="Apple SD Gothic Neo" font-size="11.00">요약 정보 카드</text>
</g>
<!-- 대시보드_페이지&#45;&gt;요약_카드 -->
<g id="edge13" class="edge">
<title>대시보드_페이지&#45;&gt;요약_카드</title>
<path fill="none" stroke="#64748b" stroke-width="1.2" d="M885.52,-193.36C884.41,-179.04 884.29,-162.68 887,-148 890.23,-130.5 896.65,-112.02 903.13,-96.28"/>
<polygon fill="#64748b" stroke="#64748b" stroke-width="1.2" points="905.66,-97.48 906.21,-89.03 900.5,-95.29 905.66,-97.48"/>
<text xml:space="preserve" text-anchor="middle" x="917" y="-150.5" font-family="Apple SD Gothic Neo" font-size="10.00">핵심 지표 요약</text>
</g>
<!-- 목록_카드 -->
<g id="node15" class="node">
<title>목록_카드</title>
<polygon fill="#dcfce7" stroke="none" points="717.25,-62.5 717.25,-94.75 844.75,-94.75 844.75,-62.5 717.25,-62.5"/>
<polygon fill="none" stroke="#4ade80" points="717.25,-62.5 717.25,-94.75 844.75,-94.75 844.75,-62.5 717.25,-62.5"/>
<text xml:space="preserve" text-anchor="start" x="760" y="-76.3" font-family="Apple SD Gothic Neo" font-weight="bold" font-size="11.00">목록 카드</text>
<polygon fill="#f9fff9" stroke="none" points="717.25,-16 717.25,-62.5 844.75,-62.5 844.75,-16 717.25,-16"/>
<polygon fill="none" stroke="#4ade80" points="717.25,-16 717.25,-62.5 844.75,-62.5 844.75,-16 717.25,-16"/>
<text xml:space="preserve" text-anchor="start" x="735.62" y="-43" font-family="Apple SD Gothic Neo" font-size="11.00">대시보드 / 목록 카드</text>
<text xml:space="preserve" text-anchor="start" x="726.25" y="-28.75" font-family="Apple SD Gothic Neo" font-size="11.00">직접 문서 노드 호버 효과</text>
</g>
<!-- 대시보드_페이지&#45;&gt;목록_카드 -->
<g id="edge14" class="edge">
<title>대시보드_페이지&#45;&gt;목록_카드</title>
<path fill="none" stroke="#64748b" stroke-width="1.2" d="M841.63,-196.99C823.79,-183.61 806.64,-169.29 801,-160 790.93,-143.4 785.77,-122.79 783.18,-104.34"/>
<polygon fill="#64748b" stroke="#64748b" stroke-width="1.2" points="785.96,-104.04 782.23,-96.43 780.4,-104.71 785.96,-104.04"/>
<text xml:space="preserve" text-anchor="middle" x="838.5" y="-150.5" font-family="Apple SD Gothic Neo" font-size="10.00">스포트라이트 카드</text>
</g>
<!-- 컬렉션_페이지&#45;&gt;페이지_헤더 -->
<g id="edge15" class="edge">
<title>컬렉션_페이지&#45;&gt;페이지_헤더</title>
<path fill="none" stroke="#64748b" stroke-width="1.2" d="M796.18,-200.32C804.95,-194.51 814.48,-189.01 824,-185 890.88,-156.79 928.42,-190.04 981,-140 995.1,-126.58 1008.54,-109.87 1019.43,-94.91"/>
<polygon fill="#64748b" stroke="#64748b" stroke-width="1.2" points="1021.45,-96.9 1023.82,-88.76 1016.89,-93.64 1021.45,-96.9"/>
<text xml:space="preserve" text-anchor="middle" x="980.69" y="-150.5" font-family="Apple SD Gothic Neo" font-size="10.00">헤더</text>
</g>
<!-- 컬렉션_페이지&#45;&gt;목록_카드 -->
<g id="edge17" class="edge">
<title>컬렉션_페이지&#45;&gt;목록_카드</title>
<path fill="none" stroke="#64748b" stroke-width="1.2" d="M709.31,-217.81C666.34,-203.27 613.66,-178.15 640,-148 648.7,-138.04 687.17,-145.93 699,-140 717.12,-130.91 733.56,-116.22 746.88,-101.67"/>
<polygon fill="#64748b" stroke="#64748b" stroke-width="1.2" points="748.76,-103.77 751.96,-95.92 744.57,-100.06 748.76,-103.77"/>
<text xml:space="preserve" text-anchor="middle" x="685" y="-150.5" font-family="Apple SD Gothic Neo" font-size="10.00">가상 스크롤 카드 목록</text>
</g>
<!-- 컬렉션_도구막대 -->
<g id="node16" class="node">
<title>컬렉션_도구막대</title>
<polygon fill="#dcfce7" stroke="none" points="585,-55.38 585,-87.62 681,-87.62 681,-55.38 585,-55.38"/>
<polygon fill="none" stroke="#4ade80" points="585,-55.38 585,-87.62 681,-87.62 681,-55.38 585,-55.38"/>
<text xml:space="preserve" text-anchor="start" x="597.38" y="-69.17" font-family="Apple SD Gothic Neo" font-weight="bold" font-size="11.00">컬렉션 도구막대</text>
<polygon fill="#f9fff9" stroke="none" points="585,-23.12 585,-55.38 681,-55.38 681,-23.12 585,-23.12"/>
<polygon fill="none" stroke="#4ade80" points="585,-23.12 585,-55.38 681,-55.38 681,-23.12 585,-23.12"/>
<text xml:space="preserve" text-anchor="start" x="594" y="-35.88" font-family="Apple SD Gothic Neo" font-size="11.00">검색 / 정렬 / 필터</text>
</g>
<!-- 컬렉션_페이지&#45;&gt;컬렉션_도구막대 -->
<g id="edge16" class="edge">
<title>컬렉션_페이지&#45;&gt;컬렉션_도구막대</title>
<path fill="none" stroke="#64748b" stroke-width="1.2" d="M709.31,-226.75C667.19,-219.86 608.12,-202.7 579.25,-160 565.36,-139.45 577.03,-114.87 593,-94.81"/>
<polygon fill="#64748b" stroke="#64748b" stroke-width="1.2" points="595.09,-96.67 598.11,-88.75 590.81,-93.06 595.09,-96.67"/>
<text xml:space="preserve" text-anchor="middle" x="602.12" y="-150.5" font-family="Apple SD Gothic Neo" font-size="10.00">검색 / 필터</text>
</g>
<!-- 상세_페이지&#45;&gt;페이지_헤더 -->
<g id="edge18" class="edge">
<title>상세_페이지&#45;&gt;페이지_헤더</title>
<path fill="none" stroke="#64748b" stroke-width="1.2" d="M1196.26,-211.46C1232.76,-195.8 1269.19,-172.58 1246,-148 1235.54,-136.91 1122.47,-147.15 1109,-140 1090.4,-130.13 1075.59,-112.22 1064.91,-95.5"/>
<polygon fill="#64748b" stroke="#64748b" stroke-width="1.2" points="1067.5,-94.36 1060.95,-88.98 1062.71,-97.27 1067.5,-94.36"/>
<text xml:space="preserve" text-anchor="middle" x="1261.46" y="-150.5" font-family="Apple SD Gothic Neo" font-size="10.00">헤더</text>
</g>
<!-- 상세_페이지&#45;&gt;요약_카드 -->
<g id="edge19" class="edge">
<title>상세_페이지&#45;&gt;요약_카드</title>
<path fill="none" stroke="#64748b" stroke-width="1.2" d="M1130.49,-193.24C1124.74,-176.57 1115.3,-158.47 1100,-148 1078.13,-133.03 1004.11,-152.98 981,-140 963.32,-130.07 949.68,-112.38 939.99,-95.82"/>
<polygon fill="#64748b" stroke="#64748b" stroke-width="1.2" points="942.49,-94.54 936.16,-88.9 937.58,-97.25 942.49,-94.54"/>
<text xml:space="preserve" text-anchor="middle" x="1150.44" y="-150.5" font-family="Apple SD Gothic Neo" font-size="10.00">희귀도 / 종족값 합</text>
</g>
<!-- 상세_카드_프리뷰 -->
<g id="node17" class="node">
<title>상세_카드_프리뷰</title>
<polygon fill="#dcfce7" stroke="none" points="1126.75,-62.5 1126.75,-94.75 1251.25,-94.75 1251.25,-62.5 1126.75,-62.5"/>
<polygon fill="none" stroke="#4ade80" points="1126.75,-62.5 1126.75,-94.75 1251.25,-94.75 1251.25,-62.5 1126.75,-62.5"/>
<text xml:space="preserve" text-anchor="start" x="1151.88" y="-76.3" font-family="Apple SD Gothic Neo" font-weight="bold" font-size="11.00">상세 카드 프리뷰</text>
<polygon fill="#f9fff9" stroke="none" points="1126.75,-16 1126.75,-62.5 1251.25,-62.5 1251.25,-16 1126.75,-16"/>
<polygon fill="none" stroke="#4ade80" points="1126.75,-16 1126.75,-62.5 1251.25,-62.5 1251.25,-16 1126.75,-16"/>
<text xml:space="preserve" text-anchor="start" x="1151.88" y="-43" font-family="Apple SD Gothic Neo" font-size="11.00">상세 카드 프리뷰</text>
<text xml:space="preserve" text-anchor="start" x="1135.75" y="-28.75" font-family="Apple SD Gothic Neo" font-size="11.00">런타임 상태 기반 기울기</text>
</g>
<!-- 상세_페이지&#45;&gt;상세_카드_프리뷰 -->
<g id="edge20" class="edge">
<title>상세_페이지&#45;&gt;상세_카드_프리뷰</title>
<path fill="none" stroke="#64748b" stroke-width="1.2" d="M1196.3,-223.1C1234.14,-214.33 1281.02,-196.42 1305,-160 1324.39,-130.56 1293.84,-104.2 1259.25,-85.43"/>
<polygon fill="#64748b" stroke="#64748b" stroke-width="1.2" points="1260.87,-83.12 1252.48,-81.91 1258.28,-88.09 1260.87,-83.12"/>
<text xml:space="preserve" text-anchor="middle" x="1344.34" y="-150.5" font-family="Apple SD Gothic Neo" font-size="10.00">상세 카드 프리뷰</text>
</g>
<!-- 설정_페이지&#45;&gt;페이지_헤더 -->
<g id="edge21" class="edge">
<title>설정_페이지&#45;&gt;페이지_헤더</title>
<path fill="none" stroke="#64748b" stroke-width="1.2" d="M1044.59,-200.31C1054.77,-188.76 1064.67,-174.83 1070,-160 1077.41,-139.4 1072.64,-115.72 1065.36,-96.2"/>
<polygon fill="#64748b" stroke="#64748b" stroke-width="1.2" points="1068.02,-95.32 1062.43,-88.95 1062.83,-97.42 1068.02,-95.32"/>
<text xml:space="preserve" text-anchor="middle" x="1081.8" y="-150.5" font-family="Apple SD Gothic Neo" font-size="10.00">헤더</text>
</g>
</g>
</svg>
