<?xml version="1.0" encoding="UTF-8" standalone="no"?>
<!DOCTYPE svg PUBLIC "-//W3C//DTD SVG 1.1//EN"
 "http://www.w3.org/Graphics/SVG/1.1/DTD/svg11.dtd">
<!-- Generated by graphviz version 14.1.3 (20260303.0454)
 -->
<!-- Title: 런타임_클래스_다이어그램 Pages: 1 -->
<svg width="1119pt" height="1665pt"
 viewBox="0.00 0.00 1119.00 1665.00" xmlns="http://www.w3.org/2000/svg" xmlns:xlink="http://www.w3.org/1999/xlink">
<g id="graph0" class="graph" transform="scale(1 1) rotate(0) translate(32.4 1632.65)">
<title>런타임_클래스_다이어그램</title>
<polygon fill="#f7f8fc" stroke="none" points="-32.4,32.4 -32.4,-1632.65 1086.9,-1632.65 1086.9,32.4 -32.4,32.4"/>
<text xml:space="preserve" text-anchor="middle" x="527.25" y="-1573.45" font-family="Apple SD Gothic Neo" font-size="24.00" fill="#0f172a">런타임 클래스 다이어그램</text>
<g id="clust1" class="cluster">
<title>cluster_공개진입점</title>
<path fill="#eef2ff" stroke="#c7d2fe" stroke-width="1.4" d="M20,-739C20,-739 123,-739 123,-739 129,-739 135,-745 135,-751 135,-751 135,-888 135,-888 135,-894 129,-900 123,-900 123,-900 20,-900 20,-900 14,-900 8,-894 8,-888 8,-888 8,-751 8,-751 8,-745 14,-739 20,-739"/>
<text xml:space="preserve" text-anchor="middle" x="71.5" y="-873.2" font-family="Apple SD Gothic Neo" font-size="24.00" fill="#0f172a">공개 진입점</text>
</g>
<g id="clust2" class="cluster">
<title>cluster_루트런타임</title>
<path fill="#fffbeb" stroke="#fcd34d" stroke-width="1.4" d="M266.25,-589C266.25,-589 1007.12,-589 1007.12,-589 1013.12,-589 1019.12,-595 1019.12,-601 1019.12,-601 1019.12,-1051 1019.12,-1051 1019.12,-1057 1013.12,-1063 1007.12,-1063 1007.12,-1063 266.25,-1063 266.25,-1063 260.25,-1063 254.25,-1057 254.25,-1051 254.25,-1051 254.25,-601 254.25,-601 254.25,-595 260.25,-589 266.25,-589"/>
<text xml:space="preserve" text-anchor="middle" x="636.69" y="-1036.2" font-family="Apple SD Gothic Neo" font-size="24.00" fill="#0f172a">루트 런타임</text>
</g>
<g id="clust3" class="cluster">
<title>cluster_Hook계층</title>
<path fill="#eef2ff" stroke="#a5b4fc" stroke-width="1.4" d="M630.38,-205C630.38,-205 727.38,-205 727.38,-205 733.38,-205 739.38,-211 739.38,-217 739.38,-217 739.38,-569 739.38,-569 739.38,-575 733.38,-581 727.38,-581 727.38,-581 630.38,-581 630.38,-581 624.38,-581 618.38,-575 618.38,-569 618.38,-569 618.38,-217 618.38,-217 618.38,-211 624.38,-205 630.38,-205"/>
<text xml:space="preserve" text-anchor="middle" x="678.88" y="-554.2" font-family="Apple SD Gothic Neo" font-size="24.00" fill="#0f172a">훅 계층</text>
</g>
<g id="clust4" class="cluster">
<title>cluster_데모앱</title>
<path fill="#f0fdf4" stroke="#86efac" stroke-width="1.4" d="M289.12,-8C289.12,-8 719.5,-8 719.5,-8 725.5,-8 731.5,-14 731.5,-20 731.5,-20 731.5,-185 731.5,-185 731.5,-191 725.5,-197 719.5,-197 719.5,-197 289.12,-197 289.12,-197 283.12,-197 277.12,-191 277.12,-185 277.12,-185 277.12,-20 277.12,-20 277.12,-14 283.12,-8 289.12,-8"/>
<text xml:space="preserve" text-anchor="middle" x="504.31" y="-170.2" font-family="Apple SD Gothic Neo" font-size="24.00" fill="#0f172a">데모 앱</text>
</g>
<g id="clust5" class="cluster">
<title>cluster_VDOM엔진</title>
<path fill="#fff1f2" stroke="#fda4af" stroke-width="1.4" d="M641.62,-1071C641.62,-1071 1034.5,-1071 1034.5,-1071 1040.5,-1071 1046.5,-1077 1046.5,-1083 1046.5,-1083 1046.5,-1543 1046.5,-1543 1046.5,-1549 1040.5,-1555 1034.5,-1555 1034.5,-1555 641.62,-1555 641.62,-1555 635.62,-1555 629.62,-1549 629.62,-1543 629.62,-1543 629.62,-1083 629.62,-1083 629.62,-1077 635.62,-1071 641.62,-1071"/>
<text xml:space="preserve" text-anchor="middle" x="838.06" y="-1528.2" font-family="Apple SD Gothic Neo" font-size="24.00" fill="#0f172a">가상 노드 엔진</text>
</g>
<!-- 앱_퍼사드 -->
<g id="node1" class="node">
<title>앱_퍼사드</title>
<polygon fill="#dbeafe" stroke="none" points="29.75,-822.38 29.75,-854.62 112.25,-854.62 112.25,-822.38 29.75,-822.38"/>
<polygon fill="none" stroke="#93c5fd" points="29.75,-822.38 29.75,-854.62 112.25,-854.62 112.25,-822.38 29.75,-822.38"/>
<text xml:space="preserve" text-anchor="start" x="38.75" y="-836.17" font-family="Apple SD Gothic Neo" font-weight="bold" font-size="11.00">앱 생성 퍼사드</text>
<polygon fill="#f8fbff" stroke="none" points="29.75,-747.38 29.75,-822.38 112.25,-822.38 112.25,-747.38 29.75,-747.38"/>
<polygon fill="none" stroke="#93c5fd" points="29.75,-747.38 29.75,-822.38 112.25,-822.38 112.25,-747.38 29.75,-747.38"/>
<text xml:space="preserve" text-anchor="start" x="43.62" y="-802.88" font-family="Apple SD Gothic Neo" font-size="11.00">앱 장착</text>
<text xml:space="preserve" text-anchor="start" x="38.75" y="-788.62" font-family="Apple SD Gothic Neo" font-size="11.00">속성 교체</text>
<text xml:space="preserve" text-anchor="start" x="43.62" y="-774.38" font-family="Apple SD Gothic Neo" font-size="11.00">앱 해제</text>
<text xml:space="preserve" text-anchor="start" x="38.75" y="-760.12" font-family="Apple SD Gothic Neo" font-size="11.00">상태 점검</text>
</g>
<!-- 루트_컴포넌트 -->
<g id="node2" class="node">
<title>루트_컴포넌트</title>
<polygon fill="#fde68a" stroke="none" points="275.38,-850.88 275.38,-883.12 387.12,-883.12 387.12,-850.88 275.38,-850.88"/>
<polygon fill="none" stroke="#f59e0b" points="275.38,-850.88 275.38,-883.12 387.12,-883.12 387.12,-850.88 275.38,-850.88"/>
<text xml:space="preserve" text-anchor="start" x="284.38" y="-864.67" font-family="Apple SD Gothic Neo" font-weight="bold" font-size="11.00">루트 컴포넌트 관리자</text>
<polygon fill="#fffdf5" stroke="none" points="275.38,-718.88 275.38,-850.88 387.12,-850.88 387.12,-718.88 275.38,-718.88"/>
<polygon fill="none" stroke="#f59e0b" points="275.38,-718.88 275.38,-850.88 387.12,-850.88 387.12,-718.88 275.38,-718.88"/>
<text xml:space="preserve" text-anchor="start" x="291.12" y="-831.38" font-family="Apple SD Gothic Neo" font-size="11.00">루트 렌더 함수</text>
<text xml:space="preserve" text-anchor="start" x="296" y="-817.12" font-family="Apple SD Gothic Neo" font-size="11.00">훅 저장 배열</text>
<text xml:space="preserve" text-anchor="start" x="296" y="-802.88" font-family="Apple SD Gothic Neo" font-size="11.00">훅 읽기 커서</text>
<text xml:space="preserve" text-anchor="start" x="302.38" y="-788.62" font-family="Apple SD Gothic Neo" font-size="11.00">현재 속성</text>
<text xml:space="preserve" text-anchor="start" x="291.12" y="-774.38" font-family="Apple SD Gothic Neo" font-size="11.00">현재 가상 트리</text>
<text xml:space="preserve" text-anchor="start" x="291.12" y="-760.12" font-family="Apple SD Gothic Neo" font-size="11.00">루트 문서 노드</text>
<text xml:space="preserve" text-anchor="start" x="302.38" y="-745.88" font-family="Apple SD Gothic Neo" font-size="11.00">장착 여부</text>
<text xml:space="preserve" text-anchor="start" x="284.38" y="-731.62" font-family="Apple SD Gothic Neo" font-size="11.00">장착 / 갱신 / 해제</text>
</g>
<!-- 앱_퍼사드&#45;&gt;루트_컴포넌트 -->
<g id="edge1" class="edge">
<title>앱_퍼사드&#45;&gt;루트_컴포넌트</title>
<path fill="none" stroke="#64748b" stroke-width="1.2" d="M112.07,-801C147.33,-801 199.87,-801 244.55,-801"/>
<polygon fill="#64748b" stroke="#64748b" stroke-width="1.2" points="244.44,-803.8 252.44,-801 244.44,-798.2 244.44,-803.8"/>
<text xml:space="preserve" text-anchor="middle" x="187.25" y="-803.5" font-family="Apple SD Gothic Neo" font-size="10.00">루트 인스턴스 생성</text>
</g>
<!-- 현재_디스패처 -->
<g id="node3" class="node">
<title>현재_디스패처</title>
<polygon fill="#fef3c7" stroke="none" points="931.62,-643.12 931.62,-675.38 1011.12,-675.38 1011.12,-643.12 931.62,-643.12"/>
<polygon fill="none" stroke="#fbbf24" points="931.62,-643.12 931.62,-675.38 1011.12,-675.38 1011.12,-643.12 931.62,-643.12"/>
<text xml:space="preserve" text-anchor="start" x="940.62" y="-656.92" font-family="Apple SD Gothic Neo" font-weight="bold" font-size="11.00">현재 디스패처</text>
<polygon fill="#fffdf5" stroke="none" points="931.62,-596.62 931.62,-643.12 1011.12,-643.12 1011.12,-596.62 931.62,-596.62"/>
<polygon fill="none" stroke="#fbbf24" points="931.62,-596.62 931.62,-643.12 1011.12,-643.12 1011.12,-596.62 931.62,-596.62"/>
<text xml:space="preserve" text-anchor="start" x="947" y="-623.62" font-family="Apple SD Gothic Neo" font-size="11.00">활성 루트</text>
<text xml:space="preserve" text-anchor="start" x="940.62" y="-609.38" font-family="Apple SD Gothic Neo" font-size="11.00">훅 허용 여부</text>
</g>
<!-- 루트_컴포넌트&#45;&gt;현재_디스패처 -->
<g id="edge4" class="edge">
<title>루트_컴포넌트&#45;&gt;현재_디스패처</title>
<path fill="none" stroke="#64748b" stroke-width="1.2" d="M386.81,-816.87C471.19,-838.49 637.02,-869.23 765.5,-820 836.82,-792.67 898.91,-727.8 935.52,-682.88"/>
<polygon fill="#64748b" stroke="#64748b" stroke-width="1.2" points="937.65,-684.7 940.48,-676.71 933.28,-681.19 937.65,-684.7"/>
<text xml:space="preserve" text-anchor="middle" x="678.88" y="-848.89" font-family="Apple SD Gothic Neo" font-size="10.00">활성 루트 설정 / 해제</text>
</g>
<!-- 자식_트리_전개 -->
<g id="node4" class="node">
<title>자식_트리_전개</title>
<polygon fill="#fef3c7" stroke="none" points="616.62,-985.12 616.62,-1017.38 741.12,-1017.38 741.12,-985.12 616.62,-985.12"/>
<polygon fill="none" stroke="#fbbf24" points="616.62,-985.12 616.62,-1017.38 741.12,-1017.38 741.12,-985.12 616.62,-985.12"/>
<text xml:space="preserve" text-anchor="start" x="641.75" y="-998.92" font-family="Apple SD Gothic Neo" font-weight="bold" font-size="11.00">자식 트리 전개기</text>
<polygon fill="#fffdf5" stroke="none" points="616.62,-938.62 616.62,-985.12 741.12,-985.12 741.12,-938.62 616.62,-938.62"/>
<polygon fill="none" stroke="#fbbf24" points="616.62,-938.62 616.62,-985.12 741.12,-985.12 741.12,-938.62 616.62,-938.62"/>
<text xml:space="preserve" text-anchor="start" x="625.62" y="-965.62" font-family="Apple SD Gothic Neo" font-size="11.00">자식 함수 컴포넌트 전개</text>
<text xml:space="preserve" text-anchor="start" x="651.5" y="-951.38" font-family="Apple SD Gothic Neo" font-size="11.00">자식 훅 금지</text>
</g>
<!-- 루트_컴포넌트&#45;&gt;자식_트리_전개 -->
<g id="edge5" class="edge">
<title>루트_컴포넌트&#45;&gt;자식_트리_전개</title>
<path fill="none" stroke="#64748b" stroke-width="1.2" d="M386.98,-857.95C402.01,-871.41 418.96,-884.8 436.25,-895 489.91,-926.65 557.42,-948.55 607.43,-961.88"/>
<polygon fill="#64748b" stroke="#64748b" stroke-width="1.2" points="606.66,-964.57 615.11,-963.89 608.08,-959.16 606.66,-964.57"/>
<text xml:space="preserve" text-anchor="middle" x="496.25" y="-947.54" font-family="Apple SD Gothic Neo" font-size="10.00">자식 전개</text>
</g>
<!-- 이펙트_커밋 -->
<g id="node6" class="node">
<title>이펙트_커밋</title>
<polygon fill="#fef3c7" stroke="none" points="637.62,-658.25 637.62,-690.5 720.12,-690.5 720.12,-658.25 637.62,-658.25"/>
<polygon fill="none" stroke="#fbbf24" points="637.62,-658.25 637.62,-690.5 720.12,-690.5 720.12,-658.25 637.62,-658.25"/>
<text xml:space="preserve" text-anchor="start" x="648.12" y="-672.05" font-family="Apple SD Gothic Neo" font-weight="bold" font-size="11.00">이펙트 커밋기</text>
<polygon fill="#fffdf5" stroke="none" points="637.62,-597.5 637.62,-658.25 720.12,-658.25 720.12,-597.5 637.62,-597.5"/>
<polygon fill="none" stroke="#fbbf24" points="637.62,-597.5 637.62,-658.25 720.12,-658.25 720.12,-597.5 637.62,-597.5"/>
<text xml:space="preserve" text-anchor="start" x="646.62" y="-638.75" font-family="Apple SD Gothic Neo" font-size="11.00">정리 함수 실행</text>
<text xml:space="preserve" text-anchor="start" x="646.62" y="-624.5" font-family="Apple SD Gothic Neo" font-size="11.00">부수 효과 실행</text>
<text xml:space="preserve" text-anchor="start" x="653" y="-610.25" font-family="Apple SD Gothic Neo" font-size="11.00">의존값 확정</text>
</g>
<!-- 루트_컴포넌트&#45;&gt;이펙트_커밋 -->
<g id="edge7" class="edge">
<title>루트_컴포넌트&#45;&gt;이펙트_커밋</title>
<path fill="none" stroke="#64748b" stroke-width="1.2" d="M387.02,-776.12C453.64,-745.86 565.12,-695.22 628.97,-666.21"/>
<polygon fill="#64748b" stroke="#64748b" stroke-width="1.2" points="629.88,-668.88 636.01,-663.02 627.56,-663.78 629.88,-668.88"/>
<text xml:space="preserve" text-anchor="middle" x="496.25" y="-752.72" font-family="Apple SD Gothic Neo" font-size="10.00">문서 노드 반영 후 커밋</text>
</g>
<!-- 언마운트_정리 -->
<g id="node7" class="node">
<title>언마운트_정리</title>
<polygon fill="#fef3c7" stroke="none" points="592.25,-766 592.25,-798.25 765.5,-798.25 765.5,-766 592.25,-766"/>
<polygon fill="none" stroke="#fbbf24" points="592.25,-766 592.25,-798.25 765.5,-798.25 765.5,-766 592.25,-766"/>
<text xml:space="preserve" text-anchor="start" x="643.25" y="-779.8" font-family="Apple SD Gothic Neo" font-weight="bold" font-size="11.00">언마운트 정리기</text>
<polygon fill="#fffdf5" stroke="none" points="592.25,-733.75 592.25,-766 765.5,-766 765.5,-733.75 592.25,-733.75"/>
<polygon fill="none" stroke="#fbbf24" points="592.25,-733.75 592.25,-766 765.5,-766 765.5,-733.75 592.25,-733.75"/>
<text xml:space="preserve" text-anchor="start" x="601.25" y="-746.5" font-family="Apple SD Gothic Neo" font-size="11.00">이벤트 / 부수 효과 / 문서 노드 정리</text>
</g>
<!-- 루트_컴포넌트&#45;&gt;언마운트_정리 -->
<g id="edge8" class="edge">
<title>루트_컴포넌트&#45;&gt;언마운트_정리</title>
<path fill="none" stroke="#64748b" stroke-width="1.2" d="M387.02,-795.45C439.52,-790.14 519.87,-782 582.83,-775.62"/>
<polygon fill="#64748b" stroke="#64748b" stroke-width="1.2" points="582.9,-778.43 590.57,-774.84 582.33,-772.86 582.9,-778.43"/>
<text xml:space="preserve" text-anchor="middle" x="496.25" y="-792.18" font-family="Apple SD Gothic Neo" font-size="10.00">언마운트 정리</text>
</g>
<!-- 루트_앱 -->
<g id="node11" class="node">
<title>루트_앱</title>
<polygon fill="#dcfce7" stroke="none" points="285.12,-119.62 285.12,-151.88 377.38,-151.88 377.38,-119.62 285.12,-119.62"/>
<polygon fill="none" stroke="#4ade80" points="285.12,-119.62 285.12,-151.88 377.38,-151.88 377.38,-119.62 285.12,-119.62"/>
<text xml:space="preserve" text-anchor="start" x="315.12" y="-133.43" font-family="Apple SD Gothic Neo" font-weight="bold" font-size="11.00">루트 앱</text>
<polygon fill="#f9fff9" stroke="none" points="285.12,-16.12 285.12,-119.62 377.38,-119.62 377.38,-16.12 285.12,-16.12"/>
<polygon fill="none" stroke="#4ade80" points="285.12,-16.12 285.12,-119.62 377.38,-119.62 377.38,-16.12 285.12,-16.12"/>
<text xml:space="preserve" text-anchor="start" x="310.25" y="-100.12" font-family="Apple SD Gothic Neo" font-size="11.00">설정 상태</text>
<text xml:space="preserve" text-anchor="start" x="305.38" y="-85.88" font-family="Apple SD Gothic Neo" font-size="11.00">현재 페이지</text>
<text xml:space="preserve" text-anchor="start" x="310.25" y="-71.62" font-family="Apple SD Gothic Neo" font-size="11.00">카드 목록</text>
<text xml:space="preserve" text-anchor="start" x="303.5" y="-57.38" font-family="Apple SD Gothic Neo" font-size="11.00">선택 카드 ID</text>
<text xml:space="preserve" text-anchor="start" x="299" y="-43.12" font-family="Apple SD Gothic Neo" font-size="11.00">상세 정보 사전</text>
<text xml:space="preserve" text-anchor="start" x="294.12" y="-28.88" font-family="Apple SD Gothic Neo" font-size="11.00">현재 페이지 렌더</text>
</g>
<!-- 루트_컴포넌트&#45;&gt;루트_앱 -->
<g id="edge2" class="edge">
<title>루트_컴포넌트&#45;&gt;루트_앱</title>
<path fill="none" stroke="#64748b" stroke-width="1.2" d="M254.25,-697C201.31,-586.68 163.09,-549.99 187.08,-430 203.69,-346.97 240.66,-258.95 273.01,-192.47"/>
<polygon fill="#64748b" stroke="#64748b" stroke-width="1.2" points="275.32,-194.1 276.33,-185.69 270.29,-191.64 275.32,-194.1"/>
<text xml:space="preserve" text-anchor="middle" x="187.25" y="-432.5" font-family="Apple SD Gothic Neo" font-size="10.00">루트 앱 실행</text>
</g>
<!-- 엔진 -->
<g id="node13" class="node">
<title>엔진</title>
<polygon fill="#fecdd3" stroke="none" points="637.62,-1254.5 637.62,-1286.75 720.12,-1286.75 720.12,-1254.5 637.62,-1254.5"/>
<polygon fill="none" stroke="#fb7185" points="637.62,-1254.5 637.62,-1286.75 720.12,-1286.75 720.12,-1254.5 637.62,-1254.5"/>
<text xml:space="preserve" text-anchor="start" x="646.62" y="-1268.3" font-family="Apple SD Gothic Neo" font-weight="bold" font-size="11.00">가상 노드 엔진</text>
<polygon fill="#fff8f8" stroke="none" points="637.62,-1165.25 637.62,-1254.5 720.12,-1254.5 720.12,-1165.25 637.62,-1165.25"/>
<polygon fill="none" stroke="#fb7185" points="637.62,-1165.25 637.62,-1254.5 720.12,-1254.5 720.12,-1165.25 637.62,-1165.25"/>
<text xml:space="preserve" text-anchor="start" x="646.62" y="-1235" font-family="Apple SD Gothic Neo" font-size="11.00">최초 렌더</text>
<text xml:space="preserve" text-anchor="start" x="646.62" y="-1220.75" font-family="Apple SD Gothic Neo" font-size="11.00">패치 적용</text>
<text xml:space="preserve" text-anchor="start" x="648.12" y="-1206.5" font-family="Apple SD Gothic Neo" font-size="11.00">되돌리기</text>
<text xml:space="preserve" text-anchor="start" x="646.62" y="-1192.25" font-family="Apple SD Gothic Neo" font-size="11.00">다시 실행</text>
<text xml:space="preserve" text-anchor="start" x="646.62" y="-1178" font-family="Apple SD Gothic Neo" font-size="11.00">상태 점검</text>
</g>
<!-- 루트_컴포넌트&#45;&gt;엔진 -->
<g id="edge6" class="edge">
<title>루트_컴포넌트&#45;&gt;엔진</title>
<path fill="none" stroke="#64748b" stroke-width="1.2" d="M379.25,-882.87C396.15,-910.36 416.05,-940.71 436.25,-967 494.73,-1043.1 571.7,-1122.67 622.89,-1173.2"/>
<polygon fill="#64748b" stroke="#64748b" stroke-width="1.2" points="620.67,-1174.93 628.33,-1178.55 624.59,-1170.94 620.67,-1174.93"/>
<text xml:space="preserve" text-anchor="middle" x="496.25" y="-1101.25" font-family="Apple SD Gothic Neo" font-size="10.00">엔진 생성 / 사용</text>
</g>
<!-- 자식_트리_전개&#45;&gt;현재_디스패처 -->
<g id="edge16" class="edge">
<title>자식_트리_전개&#45;&gt;현재_디스패처</title>
<path fill="none" stroke="#64748b" stroke-width="1.2" d="M740.82,-964.15C781.62,-952.05 833.95,-930.68 868.25,-895 924.93,-836.04 951.3,-741.87 962.66,-684.79"/>
<polygon fill="#64748b" stroke="#64748b" stroke-width="1.2" points="965.39,-685.44 964.15,-677.05 959.89,-684.38 965.39,-685.44"/>
<text xml:space="preserve" text-anchor="middle" x="834.88" y="-942.1" font-family="Apple SD Gothic Neo" font-size="10.00">자식 훅 금지</text>
</g>
<!-- 업데이트_예약 -->
<g id="node5" class="node">
<title>업데이트_예약</title>
<polygon fill="#fef3c7" stroke="none" points="262.25,-643.12 262.25,-675.38 400.25,-675.38 400.25,-643.12 262.25,-643.12"/>
<polygon fill="none" stroke="#fbbf24" points="262.25,-643.12 262.25,-675.38 400.25,-675.38 400.25,-643.12 262.25,-643.12"/>
<text xml:space="preserve" text-anchor="start" x="295.62" y="-656.92" font-family="Apple SD Gothic Neo" font-weight="bold" font-size="11.00">업데이트 예약기</text>
<polygon fill="#fffdf5" stroke="none" points="262.25,-596.62 262.25,-643.12 400.25,-643.12 400.25,-596.62 262.25,-596.62"/>
<polygon fill="none" stroke="#fbbf24" points="262.25,-596.62 262.25,-643.12 400.25,-643.12 400.25,-596.62 262.25,-596.62"/>
<text xml:space="preserve" text-anchor="start" x="271.25" y="-623.62" font-family="Apple SD Gothic Neo" font-size="11.00">동기 / 마이크로태스크 분기</text>
<text xml:space="preserve" text-anchor="start" x="299" y="-609.38" font-family="Apple SD Gothic Neo" font-size="11.00">중복 예약 방지</text>
</g>
<!-- 상태_Hook -->
<g id="node8" class="node">
<title>상태_Hook</title>
<polygon fill="#e0e7ff" stroke="none" points="626.38,-503.12 626.38,-535.38 731.38,-535.38 731.38,-503.12 626.38,-503.12"/>
<polygon fill="none" stroke="#818cf8" points="626.38,-503.12 626.38,-535.38 731.38,-535.38 731.38,-503.12 626.38,-503.12"/>
<text xml:space="preserve" text-anchor="start" x="662.75" y="-516.92" font-family="Apple SD Gothic Neo" font-weight="bold" font-size="11.00">상태 훅</text>
<polygon fill="#f8faff" stroke="none" points="626.38,-456.62 626.38,-503.12 731.38,-503.12 731.38,-456.62 626.38,-456.62"/>
<polygon fill="none" stroke="#818cf8" points="626.38,-456.62 626.38,-503.12 731.38,-503.12 731.38,-456.62 626.38,-456.62"/>
<text xml:space="preserve" text-anchor="start" x="646.62" y="-483.62" font-family="Apple SD Gothic Neo" font-size="11.00">상태 슬롯 생성</text>
<text xml:space="preserve" text-anchor="start" x="635.38" y="-469.38" font-family="Apple SD Gothic Neo" font-size="11.00">상태 변경 함수 생성</text>
</g>
<!-- 상태_Hook&#45;&gt;현재_디스패처 -->
<g id="edge12" class="edge">
<title>상태_Hook&#45;&gt;현재_디스패처</title>
<path fill="none" stroke="#64748b" stroke-width="1.2" d="M731.14,-520.71C785.34,-546.83 870.14,-587.69 922.87,-613.11"/>
<polygon fill="#64748b" stroke="#64748b" stroke-width="1.2" points="921.63,-615.62 930.05,-616.57 924.06,-610.57 921.63,-615.62"/>
<text xml:space="preserve" text-anchor="middle" x="834.88" y="-589.22" font-family="Apple SD Gothic Neo" font-size="10.00">활성 루트 조회</text>
</g>
<!-- 상태_Hook&#45;&gt;업데이트_예약 -->
<g id="edge13" class="edge">
<title>상태_Hook&#45;&gt;업데이트_예약</title>
<path fill="none" stroke="#64748b" stroke-width="1.2" d="M626.47,-516.82C568.92,-540.14 475.07,-578.15 408.87,-604.97"/>
<polygon fill="#64748b" stroke="#64748b" stroke-width="1.2" points="408.17,-602.23 401.81,-607.83 410.27,-607.42 408.17,-602.23"/>
<text xml:space="preserve" text-anchor="middle" x="496.25" y="-593.22" font-family="Apple SD Gothic Neo" font-size="10.00">상태 변경 함수가 재렌더 예약</text>
</g>
<!-- 이펙트_Hook -->
<g id="node9" class="node">
<title>이펙트_Hook</title>
<polygon fill="#e0e7ff" stroke="none" points="632.75,-381.12 632.75,-413.38 725,-413.38 725,-381.12 632.75,-381.12"/>
<polygon fill="none" stroke="#818cf8" points="632.75,-381.12 632.75,-413.38 725,-413.38 725,-381.12 632.75,-381.12"/>
<text xml:space="preserve" text-anchor="start" x="657.88" y="-394.93" font-family="Apple SD Gothic Neo" font-weight="bold" font-size="11.00">이펙트 훅</text>
<polygon fill="#f8faff" stroke="none" points="632.75,-334.62 632.75,-381.12 725,-381.12 725,-334.62 632.75,-334.62"/>
<polygon fill="none" stroke="#818cf8" points="632.75,-334.62 632.75,-381.12 725,-381.12 725,-334.62 632.75,-334.62"/>
<text xml:space="preserve" text-anchor="start" x="641.75" y="-361.62" font-family="Apple SD Gothic Neo" font-size="11.00">이펙트 슬롯 생성</text>
<text xml:space="preserve" text-anchor="start" x="653" y="-347.38" font-family="Apple SD Gothic Neo" font-size="11.00">의존값 비교</text>
</g>
<!-- 이펙트_Hook&#45;&gt;현재_디스패처 -->
<g id="edge14" class="edge">
<title>이펙트_Hook&#45;&gt;현재_디스패처</title>
<path fill="none" stroke="#64748b" stroke-width="1.2" d="M724.87,-404.06C738.27,-413.54 752.77,-424.33 765.5,-435 824.53,-484.46 886.96,-547.47 927.17,-589.63"/>
<polygon fill="#64748b" stroke="#64748b" stroke-width="1.2" points="925.13,-591.55 932.67,-595.41 929.19,-587.69 925.13,-591.55"/>
<text xml:space="preserve" text-anchor="middle" x="834.88" y="-527.81" font-family="Apple SD Gothic Neo" font-size="10.00">활성 루트 조회</text>
</g>
<!-- 메모_Hook -->
<g id="node10" class="node">
<title>메모_Hook</title>
<polygon fill="#e0e7ff" stroke="none" points="644,-259.12 644,-291.38 713.75,-291.38 713.75,-259.12 644,-259.12"/>
<polygon fill="none" stroke="#818cf8" points="644,-259.12 644,-291.38 713.75,-291.38 713.75,-259.12 644,-259.12"/>
<text xml:space="preserve" text-anchor="start" x="662.75" y="-272.93" font-family="Apple SD Gothic Neo" font-weight="bold" font-size="11.00">메모 훅</text>
<polygon fill="#f8faff" stroke="none" points="644,-212.62 644,-259.12 713.75,-259.12 713.75,-212.62 644,-212.62"/>
<polygon fill="none" stroke="#818cf8" points="644,-212.62 644,-259.12 713.75,-259.12 713.75,-212.62 644,-212.62"/>
<text xml:space="preserve" text-anchor="start" x="653" y="-239.62" font-family="Apple SD Gothic Neo" font-size="11.00">계산값 캐시</text>
<text xml:space="preserve" text-anchor="start" x="653" y="-225.38" font-family="Apple SD Gothic Neo" font-size="11.00">의존값 비교</text>
</g>
<!-- 메모_Hook&#45;&gt;현재_디스패처 -->
<g id="edge15" class="edge">
<title>메모_Hook&#45;&gt;현재_디스패처</title>
<path fill="none" stroke="#64748b" stroke-width="1.2" d="M713.4,-272.43C730,-283.37 749.8,-297.73 765.5,-313 850.59,-395.74 916.73,-520.38 948.9,-588.09"/>
<polygon fill="#64748b" stroke="#64748b" stroke-width="1.2" points="946.31,-589.17 952.25,-595.22 951.38,-586.79 946.31,-589.17"/>
<text xml:space="preserve" text-anchor="middle" x="834.88" y="-437.53" font-family="Apple SD Gothic Neo" font-size="10.00">활성 루트 조회</text>
</g>
<!-- 루트_앱&#45;&gt;상태_Hook -->
<g id="edge9" class="edge">
<title>루트_앱&#45;&gt;상태_Hook</title>
<path fill="none" stroke="#64748b" stroke-width="1.2" d="M350.3,-151.73C366.55,-203.47 394.39,-274.43 436.25,-326 486.41,-387.81 564.56,-437.15 618.32,-466.43"/>
<polygon fill="#64748b" stroke="#64748b" stroke-width="1.2" points="614.59,-457.48 618.19,-465.15 620.16,-456.91 614.59,-457.48"/>
<text xml:space="preserve" text-anchor="middle" x="496.25" y="-428.16" font-family="Apple SD Gothic Neo" font-size="10.00">루트 상태 소유</text>
</g>
<!-- 루트_앱&#45;&gt;이펙트_Hook -->
<g id="edge10" class="edge">
<title>루트_앱&#45;&gt;이펙트_Hook</title>
<path fill="none" stroke="#64748b" stroke-width="1.2" d="M377.17,-148.81C394.27,-171.12 414.82,-195.4 436.25,-215 494.87,-268.62 573.3,-316.68 624.68,-345.59"/>
<polygon fill="#64748b" stroke="#64748b" stroke-width="1.2" points="623.07,-347.89 631.42,-349.35 625.8,-343 623.07,-347.89"/>
<text xml:space="preserve" text-anchor="middle" x="496.25" y="-306.95" font-family="Apple SD Gothic Neo" font-size="10.00">후처리 등록</text>
</g>
<!-- 루트_앱&#45;&gt;메모_Hook -->
<g id="edge11" class="edge">
<title>루트_앱&#45;&gt;메모_Hook</title>
<path fill="none" stroke="#64748b" stroke-width="1.2" d="M377.08,-105.79C444.2,-138.42 569.94,-199.53 635.56,-231.43"/>
<polygon fill="#64748b" stroke="#64748b" stroke-width="1.2" points="633.97,-233.77 642.39,-234.75 636.42,-228.74 633.97,-233.77"/>
<text xml:space="preserve" text-anchor="middle" x="496.25" y="-195.36" font-family="Apple SD Gothic Neo" font-size="10.00">파생 데이터 계산</text>
</g>
<!-- 브이노드_생성기 -->
<g id="node12" class="node">
<title>브이노드_생성기</title>
<polygon fill="#dcfce7" stroke="none" points="634.25,-84 634.25,-116.25 723.5,-116.25 723.5,-84 634.25,-84"/>
<polygon fill="none" stroke="#4ade80" points="634.25,-84 634.25,-116.25 723.5,-116.25 723.5,-84 634.25,-84"/>
<text xml:space="preserve" text-anchor="start" x="643.25" y="-97.8" font-family="Apple SD Gothic Neo" font-weight="bold" font-size="11.00">브이노드 생성기</text>
<polygon fill="#f9fff9" stroke="none" points="634.25,-51.75 634.25,-84 723.5,-84 723.5,-51.75 634.25,-51.75"/>
<polygon fill="none" stroke="#4ade80" points="634.25,-51.75 634.25,-84 723.5,-84 723.5,-51.75 634.25,-51.75"/>
<text xml:space="preserve" text-anchor="start" x="643.25" y="-64.5" font-family="Apple SD Gothic Neo" font-size="11.00">가상 노드 생성</text>
</g>
<!-- 루트_앱&#45;&gt;브이노드_생성기 -->
<g id="edge3" class="edge">
<title>루트_앱&#45;&gt;브이노드_생성기</title>
<path fill="none" stroke="#64748b" stroke-width="1.2" d="M377.08,-84C440.71,-84 557,-84 624.84,-84"/>
<polygon fill="#64748b" stroke="#64748b" stroke-width="1.2" points="624.67,-86.8 632.67,-84 624.67,-81.2 624.67,-86.8"/>
<text xml:space="preserve" text-anchor="middle" x="496.25" y="-86.5" font-family="Apple SD Gothic Neo" font-size="10.00">가상 노드 구성</text>
</g>
<!-- 비교기 -->
<g id="node14" class="node">
<title>비교기</title>
<polygon fill="#ffe4e6" stroke="none" points="904.25,-1477.12 904.25,-1509.38 1038.5,-1509.38 1038.5,-1477.12 904.25,-1477.12"/>
<polygon fill="none" stroke="#fb7185" points="904.25,-1477.12 904.25,-1509.38 1038.5,-1509.38 1038.5,-1477.12 904.25,-1477.12"/>
<text xml:space="preserve" text-anchor="start" x="956.75" y="-1490.92" font-family="Apple SD Gothic Neo" font-weight="bold" font-size="11.00">비교기</text>
<polygon fill="#fff8f8" stroke="none" points="904.25,-1430.62 904.25,-1477.12 1038.5,-1477.12 1038.5,-1430.62 904.25,-1430.62"/>
<polygon fill="none" stroke="#fb7185" points="904.25,-1430.62 904.25,-1477.12 1038.5,-1477.12 1038.5,-1430.62 904.25,-1430.62"/>
<text xml:space="preserve" text-anchor="start" x="913.25" y="-1457.62" font-family="Apple SD Gothic Neo" font-size="11.00">이전 / 다음 가상 노드 비교</text>
<text xml:space="preserve" text-anchor="start" x="939.12" y="-1443.38" font-family="Apple SD Gothic Neo" font-size="11.00">패치 목록 생성</text>
</g>
<!-- 엔진&#45;&gt;비교기 -->
<g id="edge17" class="edge">
<title>엔진&#45;&gt;비교기</title>
<path fill="none" stroke="#64748b" stroke-width="1.2" d="M719.96,-1259.67C771.06,-1302.59 859.57,-1376.93 916.51,-1424.76"/>
<polygon fill="#64748b" stroke="#64748b" stroke-width="1.2" points="914.67,-1426.87 922.6,-1429.87 918.27,-1422.58 914.67,-1426.87"/>
<text xml:space="preserve" text-anchor="middle" x="834.88" y="-1386.61" font-family="Apple SD Gothic Neo" font-size="10.00">변경 목록 계산</text>
</g>
<!-- 패치_적용기 -->
<g id="node15" class="node">
<title>패치_적용기</title>
<polygon fill="#ffe4e6" stroke="none" points="907.62,-1111 907.62,-1143.25 1035.12,-1143.25 1035.12,-1111 907.62,-1111"/>
<polygon fill="none" stroke="#fb7185" points="907.62,-1111 907.62,-1143.25 1035.12,-1143.25 1035.12,-1111 907.62,-1111"/>
<text xml:space="preserve" text-anchor="start" x="945.5" y="-1124.8" font-family="Apple SD Gothic Neo" font-weight="bold" font-size="11.00">패치 적용기</text>
<polygon fill="#fff8f8" stroke="none" points="907.62,-1078.75 907.62,-1111 1035.12,-1111 1035.12,-1078.75 907.62,-1078.75"/>
<polygon fill="none" stroke="#fb7185" points="907.62,-1078.75 907.62,-1111 1035.12,-1111 1035.12,-1078.75 907.62,-1078.75"/>
<text xml:space="preserve" text-anchor="start" x="916.62" y="-1091.5" font-family="Apple SD Gothic Neo" font-size="11.00">실제 문서 노드 변경 적용</text>
</g>
<!-- 엔진&#45;&gt;패치_적용기 -->
<g id="edge18" class="edge">
<title>엔진&#45;&gt;패치_적용기</title>
<path fill="none" stroke="#64748b" stroke-width="1.2" d="M719.96,-1210.13C766.06,-1191.88 842.61,-1161.58 898.96,-1139.27"/>
<polygon fill="#64748b" stroke="#64748b" stroke-width="1.2" points="899.73,-1141.98 906.14,-1136.43 897.67,-1136.77 899.73,-1141.98"/>
<text xml:space="preserve" text-anchor="middle" x="834.88" y="-1177.89" font-family="Apple SD Gothic Neo" font-size="10.00">문서 노드 갱신</text>
</g>
<!-- 초기_DOM_생성기 -->
<g id="node16" class="node">
<title>초기_DOM_생성기</title>
<polygon fill="#ffe4e6" stroke="none" points="914,-1233.12 914,-1265.38 1028.75,-1265.38 1028.75,-1233.12 914,-1233.12"/>
<polygon fill="none" stroke="#fb7185" points="914,-1233.12 914,-1265.38 1028.75,-1265.38 1028.75,-1233.12 914,-1233.12"/>
<text xml:space="preserve" text-anchor="start" x="923" y="-1246.92" font-family="Apple SD Gothic Neo" font-weight="bold" font-size="11.00">초기 문서 노드 생성기</text>
<polygon fill="#fff8f8" stroke="none" points="914,-1186.62 914,-1233.12 1028.75,-1233.12 1028.75,-1186.62 914,-1186.62"/>
<polygon fill="none" stroke="#fb7185" points="914,-1186.62 914,-1233.12 1028.75,-1233.12 1028.75,-1186.62 914,-1186.62"/>
<text xml:space="preserve" text-anchor="start" x="923" y="-1213.62" font-family="Apple SD Gothic Neo" font-size="11.00">최초 문서 노드 생성</text>
<text xml:space="preserve" text-anchor="start" x="945.5" y="-1199.38" font-family="Apple SD Gothic Neo" font-size="11.00">노드 교체</text>
</g>
<!-- 엔진&#45;&gt;초기_DOM_생성기 -->
<g id="edge19" class="edge">
<title>엔진&#45;&gt;초기_DOM_생성기</title>
<path fill="none" stroke="#64748b" stroke-width="1.2" d="M719.96,-1226C767.56,-1226 847.63,-1226 904.41,-1226"/>
<polygon fill="#64748b" stroke="#64748b" stroke-width="1.2" points="904.2,-1228.8 912.2,-1226 904.2,-1223.2 904.2,-1228.8"/>
<text xml:space="preserve" text-anchor="middle" x="834.88" y="-1228.5" font-family="Apple SD Gothic Neo" font-size="10.00">최초 장착 / 교체</text>
</g>
<!-- 히스토리 -->
<g id="node17" class="node">
<title>히스토리</title>
<polygon fill="#ffe4e6" stroke="none" points="917,-1355.12 917,-1387.38 1025.75,-1387.38 1025.75,-1355.12 917,-1355.12"/>
<polygon fill="none" stroke="#fb7185" points="917,-1355.12 917,-1387.38 1025.75,-1387.38 1025.75,-1355.12 917,-1355.12"/>
<text xml:space="preserve" text-anchor="start" x="951.88" y="-1368.92" font-family="Apple SD Gothic Neo" font-weight="bold" font-size="11.00">히스토리</text>
<polygon fill="#fff8f8" stroke="none" points="917,-1308.62 917,-1355.12 1025.75,-1355.12 1025.75,-1308.62 917,-1308.62"/>
<polygon fill="none" stroke="#fb7185" points="917,-1308.62 917,-1355.12 1025.75,-1355.12 1025.75,-1308.62 917,-1308.62"/>
<text xml:space="preserve" text-anchor="start" x="926" y="-1335.62" font-family="Apple SD Gothic Neo" font-size="11.00">되돌리기 / 다시 실행</text>
<text xml:space="preserve" text-anchor="start" x="945.5" y="-1321.38" font-family="Apple SD Gothic Neo" font-size="11.00">스냅샷 기록</text>
</g>
<!-- 엔진&#45;&gt;히스토리 -->
<g id="edge20" class="edge">
<title>엔진&#45;&gt;히스토리</title>
<path fill="none" stroke="#64748b" stroke-width="1.2" d="M719.96,-1242.84C768.64,-1263.28 851.29,-1297.99 908.25,-1321.91"/>
<polygon fill="#64748b" stroke="#64748b" stroke-width="1.2" points="907.02,-1324.43 915.48,-1324.95 909.19,-1319.27 907.02,-1324.43"/>
<text xml:space="preserve" text-anchor="middle" x="834.88" y="-1307.56" font-family="Apple SD Gothic Neo" font-size="10.00">스냅샷 기록</text>
</g>
</g>
</svg>
